<?xml version="1.0" encoding="UTF-8"?>
<svg width="50" height="50" version="1.1" viewBox="0 0 13.229 13.229" xmlns="http://www.w3.org/2000/svg">
 <g transform="translate(0 -283.77)">
  <g>
   <rect transform="rotate(-7.0251)" x="-33.448" y="283" width="8.9908" height="12.067" ry=".4732" fill="#928cf0" style="paint-order:normal"/>
   <rect transform="rotate(7.6513)" x="40.726" y="280.91" width="8.9908" height="12.067" ry=".4732" fill="#d4af37" style="paint-order:normal"/>
   <rect transform="rotate(-.045454)" x="1.8888" y="284.38" width="8.9908" height="12.067" ry=".4732" fill="#2c2a49" style="paint-order:normal"/>
  </g>
  <text x="6.5463777" y="287.08588" fill="#ffffff" fill-opacity=".94118" font-family="'Bookman Old Style'" font-size="1.8738px" font-weight="600" letter-spacing="0px" stroke-width=".11711" text-align="center" text-anchor="middle" word-spacing="0px" writing-mode="lr" style="font-feature-settings:Bold;font-variant-caps:normal;font-variant-ligatures:normal;font-variant-numeric:normal;line-height:1" xml:space="preserve"><tspan>Расчет</tspan></text>
  <g fill="#928cf0">
   <rect x="5.2339" y="292.86" width="3.6081" height=".4732" rx=".19193" ry=".4732" style="paint-order:normal"/>
   <rect x="5.2339" y="288.36" width="4.8503" height=".4732" rx=".258" ry=".4732" style="paint-order:normal"/>
   <rect x="5.2339" y="289.86" width="4.8503" height=".4732" rx=".258" ry=".4732" style="paint-order:normal"/>
   <rect x="5.2339" y="291.36" width="4.8503" height=".4732" rx=".258" ry=".4732" style="paint-order:normal"/>
  </g>
  <g fill="#d4af37">
   <path d="m2.9846 288.28 0.41642 0.50243c0.071845 0.0475 0.11332 0.0546 0.14937 0.0543 0.056146-2e-3 0.10374-0.0109 0.13579-0.0362l0.602-0.76497c0.020308-0.0808-0.010483-0.12077-0.04979-0.15389-0.055367-0.0653-0.14591-0.0546-0.18105-5e-3l-0.50695 0.62914-0.35306-0.40737c-0.064733-0.0692-0.13594-0.0802-0.21274-0.0407-0.038145 0.0205-0.091915 0.12119 0 0.22179z"/>
   <path d="m2.9846 289.78 0.41642 0.50243c0.071845 0.0475 0.11332 0.0546 0.14937 0.0543 0.056146-2e-3 0.10374-0.0109 0.13579-0.0362l0.602-0.76497c0.020308-0.0808-0.010483-0.12077-0.04979-0.15389-0.055367-0.0653-0.14591-0.0546-0.18105-5e-3l-0.50695 0.62914-0.35306-0.40737c-0.064733-0.0692-0.13594-0.0802-0.21274-0.0407-0.038145 0.0205-0.091915 0.12119 0 0.22179z"/>
   <path d="m2.9846 291.28 0.41642 0.50243c0.071845 0.0475 0.11332 0.0546 0.14937 0.0543 0.056146-2e-3 0.10374-0.0109 0.13579-0.0362l0.602-0.76497c0.020308-0.0808-0.010483-0.12077-0.04979-0.15389-0.055367-0.0653-0.14591-0.0546-0.18105-5e-3l-0.50695 0.62914-0.35306-0.40737c-0.064733-0.0692-0.13594-0.0802-0.21274-0.0407-0.038145 0.0205-0.091915 0.12119 0 0.22179z"/>
   <path d="m2.9846 292.78 0.41642 0.50243c0.071845 0.0475 0.11332 0.0546 0.14937 0.0543 0.056146-2e-3 0.10374-0.0109 0.13579-0.0362l0.602-0.76497c0.020308-0.0808-0.010483-0.12077-0.04979-0.15389-0.055367-0.0653-0.14591-0.0546-0.18105-5e-3l-0.50695 0.62914-0.35306-0.40737c-0.064733-0.0692-0.13594-0.0802-0.21274-0.0407-0.038145 0.0205-0.091915 0.12119 0 0.22179z"/>
  </g>
 </g>
</svg>
