<svg id="logo" width="200" height="70" version="1.1" viewBox="0 0 52.92 18.52" xmlns="http://www.w3.org/2000/svg" xmlns:xlink="http://www.w3.org/1999/xlink">
 <defs>
  <radialGradient id="b" cx="9.887" cy="10.45" r="3.786" gradientTransform="matrix(-1.818 -3.199 2.71 -1.54 -.4533 58.54)" gradientUnits="userSpaceOnUse">
   <stop stop-color="#d4a37f" offset="0"/>
   <stop stop-color="#d4a37f" stop-opacity="0" offset="1"/>
  </radialGradient>
  <radialGradient id="a" cx=".9464" cy="8.582" r="3.786" gradientTransform="matrix(4.593 3.078 -3.048 4.548 22.75 -33.36)" gradientUnits="userSpaceOnUse">
   <stop stop-color="#d4a37f" offset="0"/>
   <stop stop-color="#d4a37f" stop-opacity="0" offset="1"/>
  </radialGradient>
 </defs>
 <g fill="none" stroke-linecap="round" stroke-linejoin="round">
  <g stroke-width="1.685">
   <path d="m3.999 9.212 5.878-5.016 1.3e-6 11.52-3.841-3.135" stroke="#000"/>
   <path d="m7.019 9.327-5.878 5.016v-11.52l3.841 3.135" stroke="#000"/>
   <path d="m7.019 9.327-5.878 5.016v-11.52l3.841 3.135" stroke="url(#a)" stroke-opacity=".9412"/>
   <path d="m3.999 9.212 5.878-5.016v11.52l-3.841-3.135" stroke="url(#b)" stroke-opacity=".9412"/>
  </g>
  <g stroke="#8a6e58" stroke-width=".5292">
   <path d="m15.39 8.492h-2.893q0.02808 0.4634 0.3511 0.7092 0.3265 0.2457 0.9584 0.2457 0.4002 0 0.7759-0.1439t0.5933-0.3089h0.1404v1.015q-0.4283 0.172-0.8075 0.2493-0.3792 0.07723-0.839 0.07723-1.187 0-1.819-0.5336-0.6319-0.5336-0.6319-1.52 0-0.976 0.5968-1.545 0.6003-0.5722 1.643-0.5722 0.9619 0 1.446 0.488 0.4845 0.4845 0.4845 1.397zm-1.257-0.7407q-0.01053-0.3967-0.1966-0.5968t-0.5793-0.2001q-0.3651 0-0.6003 0.1896-0.2352 0.1896-0.2633 0.6073z" style="font-feature-settings:Bold;font-variant-caps:normal;font-variant-ligatures:normal;font-variant-numeric:normal"/>
   <path d="m20.24 10.23h-1.271v-1.955q0-0.2387-0.02457-0.4739-0.02458-0.2387-0.08426-0.3511-0.07021-0.1299-0.2071-0.1896-0.1334-0.05968-0.3756-0.05968-0.172 0-0.3511 0.05617-0.1755 0.05617-0.3827 0.179v2.794h-1.264v-3.942h1.264v0.4353q0.337-0.2633 0.646-0.4037 0.3124-0.1404 0.6916-0.1404 0.6389 0 0.997 0.3721 0.3616 0.3721 0.3616 1.113z" style="font-feature-settings:Bold;font-variant-caps:normal;font-variant-ligatures:normal;font-variant-numeric:normal"/>
   <path d="m25.34 10.23h-1.264v-0.4353q-0.3511 0.2668-0.6425 0.4072-0.2914 0.1369-0.6951 0.1369-0.653 0-1.008-0.3756-0.3511-0.3756-0.3511-1.109v-2.566h1.271v1.955q0 0.2984 0.01755 0.4985 0.02106 0.1966 0.09128 0.3265 0.0667 0.1299 0.2001 0.1896 0.1369 0.05968 0.3792 0.05968 0.1615 0 0.3581-0.05968 0.1966-0.05968 0.3792-0.1755v-2.794h1.264z" style="font-feature-settings:Bold;font-variant-caps:normal;font-variant-ligatures:normal;font-variant-numeric:normal"/>
   <path d="m31.29 10.23h-1.348v-2.303h-1.991v2.303h-1.348v-5.227h1.348v1.913h1.991v-1.913h1.348z" style="font-feature-settings:Bold;font-variant-caps:normal;font-variant-ligatures:normal;font-variant-numeric:normal"/>
   <path d="m36.44 8.492h-2.893q0.02808 0.4634 0.3511 0.7092 0.3265 0.2457 0.9584 0.2457 0.4002 0 0.7759-0.1439t0.5933-0.3089h0.1404v1.015q-0.4283 0.172-0.8075 0.2493-0.3792 0.07723-0.839 0.07723-1.187 0-1.819-0.5336-0.6319-0.5336-0.6319-1.52 0-0.976 0.5968-1.545 0.6003-0.5722 1.643-0.5722 0.9619 0 1.446 0.488 0.4845 0.4845 0.4845 1.397zm-1.257-0.7407q-0.01053-0.3967-0.1966-0.5968-0.1861-0.2001-0.5793-0.2001-0.3651 0-0.6003 0.1896t-0.2633 0.6073z" style="font-feature-settings:Bold;font-variant-caps:normal;font-variant-ligatures:normal;font-variant-numeric:normal"/>
   <path d="m38.6 10.23h-1.264v-5.463h1.264z" style="font-feature-settings:Bold;font-variant-caps:normal;font-variant-ligatures:normal;font-variant-numeric:normal"/>
   <path d="m43.91 8.204q0 0.488-0.151 0.8882-0.1474 0.4002-0.3897 0.66-0.2528 0.2738-0.5722 0.4143-0.3195 0.1404-0.6846 0.1404-0.337 0-0.5722-0.07372-0.2352-0.07021-0.481-0.2001v1.643h-1.264v-5.389h1.264v0.4107q0.2914-0.2317 0.5933-0.3756 0.3054-0.1439 0.7021-0.1439 0.7372 0 1.144 0.5406 0.4107 0.5406 0.4107 1.485zm-1.302 0.02458q0-0.5757-0.1966-0.8355-0.1966-0.2598-0.6214-0.2598-0.179 0-0.3686 0.05617-0.1896 0.05266-0.3616 0.1545v1.984q0.1264 0.04915 0.2703 0.06319t0.2844 0.01404q0.502 0 0.7478-0.2914 0.2457-0.2949 0.2457-0.8847z" style="font-feature-settings:Bold;font-variant-caps:normal;font-variant-ligatures:normal;font-variant-numeric:normal"/>
   <path d="m48.7 8.492h-2.893q0.02808 0.4634 0.3511 0.7092 0.3265 0.2457 0.9584 0.2457 0.4002 0 0.7759-0.1439t0.5933-0.3089h0.1404v1.015q-0.4283 0.172-0.8075 0.2493-0.3792 0.07723-0.839 0.07723-1.187 0-1.819-0.5336-0.6319-0.5336-0.6319-1.52 0-0.976 0.5968-1.545 0.6003-0.5722 1.643-0.5722 0.9619 0 1.446 0.488 0.4845 0.4845 0.4845 1.397zm-1.257-0.7407q-0.01053-0.3967-0.1966-0.5968t-0.5793-0.2001q-0.3651 0-0.6003 0.1896-0.2352 0.1896-0.2633 0.6073z" style="font-feature-settings:Bold;font-variant-caps:normal;font-variant-ligatures:normal;font-variant-numeric:normal"/>
   <path d="m52.45 7.492h-0.1123q-0.08075-0.02808-0.2598-0.04213-0.179-0.01404-0.2984-0.01404-0.2703 0-0.4774 0.03511t-0.4459 0.1194v2.64h-1.264v-3.942h1.264v0.5793q0.4178-0.3581 0.7267-0.4739 0.3089-0.1194 0.5687-0.1194 0.0667 0 0.151 0.00351 0.08426 0.00351 0.1474 0.01053z" style="font-feature-settings:Bold;font-variant-caps:normal;font-variant-ligatures:normal;font-variant-numeric:normal"/>
  </g>
 </g>
</svg>
